<svg width="19" height="19" viewBox="0 0 19 19" fill="none" xmlns="http://www.w3.org/2000/svg">
<path d="M8.2889 13.9792L2.62353 13.9788L2.54837 13.9683L2.47423 13.9476L2.42904 13.9285C2.3696 13.9023 2.31392 13.8643 2.26502 13.8154L2.23448 13.7824L2.20182 13.7401L2.1612 13.6725L2.13219 13.6048L2.11782 13.5567L2.10763 13.5087L2.10062 13.438L2.10025 7.78875C2.10025 7.47809 2.35209 7.22625 2.66275 7.22625C2.94752 7.22625 3.18287 7.43787 3.22012 7.71242L3.22525 7.78875L3.22559 12.0599L9.01472 6.26973C9.21441 6.07002 9.52691 6.05185 9.74713 6.21524L9.81022 6.26971L12.0381 8.49748L16.1403 4.39522C16.36 4.17555 16.7162 4.17555 16.9358 4.39522C17.1355 4.59492 17.1537 4.90742 16.9903 5.12763L16.9358 5.19072L12.4358 9.69072C12.2361 9.89041 11.9236 9.90857 11.7034 9.74519L11.6403 9.69072L9.4125 7.46296L4.02209 12.8542L8.2889 12.8542C8.57367 12.8542 8.80901 13.0658 8.84626 13.3403L8.8514 13.4167C8.8514 13.7014 8.63978 13.9368 8.36522 13.974L8.2889 13.9792Z" fill="#FE5440"/>
</svg>
