<svg width="19" height="19" viewBox="0 0 19 19" fill="none" xmlns="http://www.w3.org/2000/svg">
<path d="M10.5111 4.22917L16.1765 4.22956L16.2516 4.24001L16.3258 4.26071L16.3709 4.27987C16.4304 4.30602 16.4861 4.34404 16.535 4.39294L16.5655 4.42597L16.5982 4.46826L16.6388 4.53585L16.6678 4.60359L16.6822 4.65165L16.6924 4.69965L16.6994 4.7703L16.6997 10.4196C16.6997 10.7303 16.4479 10.9821 16.1372 10.9821C15.8525 10.9821 15.6171 10.7705 15.5799 10.4959L15.5747 10.4196L15.5744 6.14842L9.78527 11.9386C9.58558 12.1383 9.27307 12.1565 9.05286 11.9931L8.98977 11.9386L6.76191 9.71086L2.65965 13.8131C2.43998 14.0328 2.08382 14.0328 1.86415 13.8131C1.66445 13.6134 1.6463 13.3009 1.80969 13.0807L1.86415 13.0176L6.36415 8.51763C6.56385 8.31793 6.87634 8.29977 7.09655 8.46316L7.15964 8.51762L9.38749 10.7454L14.7779 5.35417H10.5111C10.2263 5.35417 9.99097 5.14256 9.95373 4.868L9.94859 4.79167C9.94859 4.5069 10.1602 4.27156 10.4348 4.23431L10.5111 4.22917Z" fill="#1DA479"/>
</svg>
