<svg width="16" height="16" viewBox="0 0 16 16" fill="none" xmlns="http://www.w3.org/2000/svg">
<path d="M10.6126 1.35413C8.71409 1.35413 7.17507 2.89315 7.17507 4.79163C7.17507 5.06864 7.20793 5.33848 7.2701 5.59725L2.07555 10.7918C1.37472 11.4926 1.37472 12.6289 2.07555 13.3297C2.77637 14.0305 3.91263 14.0305 4.61346 13.3297L7.18464 10.7585C7.23718 9.99517 7.50061 9.2898 7.91709 8.70026L3.95055 12.6668C3.61584 13.0015 3.07317 13.0015 2.73846 12.6668C2.40375 12.3321 2.40375 11.7894 2.73846 11.4547L8.1279 6.06527C8.25357 5.93961 8.29736 5.75369 8.241 5.58515C8.15782 5.33643 8.11257 5.06979 8.11257 4.79163C8.11257 3.41091 9.23186 2.29163 10.6126 2.29163C10.7009 2.29163 10.788 2.29619 10.8739 2.30508L9.72099 3.45795C9.41589 3.76305 9.41589 4.25771 9.72099 4.5628L10.8415 5.68336C11.1466 5.98846 11.6413 5.98846 11.9464 5.68336L13.0991 4.53062C13.108 4.61634 13.1126 4.70341 13.1126 4.79163C13.1126 5.75814 12.5641 6.59656 11.7614 7.01261C12.1688 7.06507 12.5573 7.17787 12.9176 7.34178C13.6131 6.71275 14.0501 5.80322 14.0501 4.79163C14.0501 4.31248 13.9518 3.85508 13.7738 3.43945C13.7125 3.29644 13.5843 3.19313 13.4316 3.16369C13.2788 3.13425 13.1214 3.18251 13.0114 3.29251L11.394 4.90996L10.4944 4.01038L12.1119 2.39287C12.2219 2.28287 12.2702 2.12547 12.2407 1.97272C12.2113 1.81996 12.108 1.69177 11.965 1.63052C11.5493 1.45247 11.0918 1.35413 10.6126 1.35413ZM9.22319 8.83888C9.41992 9.52029 9.01093 10.2287 8.32245 10.399L7.95733 10.4894C7.92926 10.6692 7.91467 10.8537 7.91467 11.0417C7.91467 11.2383 7.93063 11.4312 7.96129 11.6188L8.29845 11.7C8.99377 11.8674 9.4071 12.5831 9.20469 13.269L9.08826 13.6636C9.36272 13.9046 9.67551 14.1003 10.0158 14.2396L10.3242 13.9154C10.817 13.3971 11.6434 13.3972 12.1361 13.9157L12.4478 14.2437C12.7875 14.106 13.1 13.9121 13.3745 13.6731L13.2508 13.2444C13.054 12.563 13.463 11.8546 14.1515 11.6843L14.5163 11.594C14.5444 11.4142 14.559 11.2297 14.559 11.0417C14.559 10.8449 14.543 10.6521 14.5124 10.4644L14.1755 10.3833C13.4802 10.2158 13.0669 9.5002 13.2693 8.81425L13.3856 8.41994C13.1112 8.17886 12.7984 7.9831 12.458 7.84383L12.1498 8.16792C11.657 8.6862 10.8305 8.68606 10.3379 8.16762L10.0261 7.83957C9.68641 7.9772 9.37393 8.17103 9.09938 8.41003L9.22319 8.83888ZM11.2368 11.9792C10.7364 11.9792 10.3308 11.5594 10.3308 11.0417C10.3308 10.5239 10.7364 10.1042 11.2368 10.1042C11.7372 10.1042 12.1429 10.5239 12.1429 11.0417C12.1429 11.5594 11.7372 11.9792 11.2368 11.9792Z" fill="#FE5440"/>
</svg>
