<svg width="19" height="19" viewBox="0 0 19 19" fill="none" xmlns="http://www.w3.org/2000/svg">
<path d="M5.55 4.09683V5.46245H3.72916C2.72354 5.46245 1.90833 6.27767 1.90833 7.28329L1.90833 9.10412H5.55V8.64958C5.55 8.39818 5.7538 8.19437 6.0052 8.19437C6.25661 8.19437 6.46041 8.39818 6.46041 8.64958V9.10412H11.9229L11.9229 8.64959C11.9229 8.39818 12.1267 8.19437 12.3781 8.19437C12.6295 8.19437 12.8333 8.39818 12.8333 8.64958L12.8333 9.10412H16.4774V7.28329C16.4774 6.27767 15.6621 5.46245 14.6565 5.46245L12.8333 5.46245V4.09683C12.8333 3.34261 12.2219 2.7312 11.4677 2.7312H6.91562C6.16141 2.7312 5.55 3.34261 5.55 4.09683ZM6.91562 3.64162H11.4677C11.7191 3.64162 11.9229 3.84542 11.9229 4.09683V5.46245H6.46041V4.09683C6.46041 3.84542 6.66422 3.64162 6.91562 3.64162ZM16.4774 10.0145H12.8333L12.8333 10.4697C12.8334 10.7212 12.6295 10.925 12.3781 10.925C12.1267 10.925 11.9229 10.7212 11.9229 10.4698L11.9229 10.0145H6.46041V10.4698C6.46041 10.7212 6.25661 10.925 6.0052 10.925C5.7538 10.925 5.55 10.7212 5.55 10.4698V10.0145H1.90833L1.90833 13.6562C1.90833 14.6618 2.72354 15.477 3.72916 15.477H14.6565C15.6621 15.477 16.4774 14.6618 16.4774 13.6562V10.0145Z" fill="#0099CC"/>
</svg>
