<svg width="19" height="19" viewBox="0 0 19 19" fill="none" xmlns="http://www.w3.org/2000/svg">
<path d="M2.30823 3.18643C2.30823 2.43221 2.91964 1.8208 3.67385 1.8208L15.5093 1.8208C16.2635 1.8208 16.8749 2.43221 16.8749 3.18643V10.4698C16.8749 11.224 16.2635 11.8354 15.5093 11.8354H10.0468V14.8333L11.0905 13.7896C11.2683 13.6118 11.5565 13.6118 11.7343 13.7896C11.9121 13.9673 11.9121 14.2556 11.7343 14.4333L9.91345 16.2542C9.73568 16.4319 9.44746 16.4319 9.26969 16.2542L7.44885 14.4333C7.27108 14.2556 7.27108 13.9673 7.44885 13.7896C7.62662 13.6118 7.91484 13.6118 8.09261 13.7896L9.13636 14.8333V11.8354H3.67385C2.91964 11.8354 2.30823 11.224 2.30823 10.4698L2.30823 3.18643ZM5.49685 5.46673C5.87514 5.46673 6.18182 5.16006 6.18182 4.78176C6.18182 4.40346 5.87514 4.09679 5.49685 4.09679C5.11855 4.09679 4.81188 4.40346 4.81188 4.78176C4.81188 5.16006 5.11855 5.46673 5.49685 5.46673ZM10.9594 5.46673C11.3377 5.46673 11.6443 5.16006 11.6443 4.78176C11.6443 4.40346 11.3377 4.09679 10.9594 4.09679C10.5811 4.09679 10.2744 4.40346 10.2744 4.78176C10.2744 5.16006 10.5811 5.46673 10.9594 5.46673ZM5.49469 9.10414C5.24328 9.10414 5.03948 9.30795 5.03948 9.55935C5.03948 9.81076 5.24328 10.0146 5.49469 10.0146H13.6884C13.9399 10.0146 14.1437 9.81076 14.1437 9.55935C14.1437 9.30795 13.9399 9.10414 13.6884 9.10414H5.49469ZM13.0056 4.78176C13.0056 5.16006 13.3123 5.46673 13.6906 5.46673C14.0689 5.46673 14.3756 5.16006 14.3756 4.78176C14.3756 4.40346 14.0689 4.09679 13.6906 4.09679C13.3123 4.09679 13.0056 4.40346 13.0056 4.78176ZM6.17317 7.0578C6.17317 7.4361 6.47984 7.74277 6.85814 7.74277C7.23644 7.74277 7.54311 7.4361 7.54311 7.0578C7.54311 6.67951 7.23644 6.37283 6.85814 6.37283C6.47984 6.37283 6.17317 6.67951 6.17317 7.0578ZM9.59373 7.74277C9.97202 7.74277 10.2787 7.4361 10.2787 7.0578C10.2787 6.67951 9.97202 6.37283 9.59373 6.37283C9.21543 6.37283 8.90876 6.67951 8.90876 7.0578C8.90876 7.4361 9.21543 7.74277 9.59373 7.74277ZM11.6443 7.0578C11.6443 7.4361 11.951 7.74277 12.3293 7.74277C12.7076 7.74277 13.0143 7.4361 13.0143 7.0578C13.0143 6.67951 12.7076 6.37283 12.3293 6.37283C11.951 6.37283 11.6443 6.67951 11.6443 7.0578ZM8.2281 5.46673C8.6064 5.46673 8.91307 5.16006 8.91307 4.78176C8.91307 4.40346 8.6064 4.09679 8.2281 4.09679C7.8498 4.09679 7.54313 4.40346 7.54313 4.78176C7.54313 5.16006 7.8498 5.46673 8.2281 5.46673Z" fill="#705AEA"/>
</svg>
