<svg width="19" height="19" viewBox="0 0 19 19" fill="none" xmlns="http://www.w3.org/2000/svg">
<g clip-path="url(#clip0_826_10440)">
<path d="M9.79152 5.00728C9.79152 7.26992 11.6258 9.10416 13.8884 9.10416C16.151 9.10416 17.9853 7.26992 17.9853 5.00728C17.9853 2.74464 16.151 0.9104 13.8884 0.9104C11.6258 0.9104 9.79152 2.74464 9.79152 5.00728ZM15.7092 2.27603C15.9606 2.27603 16.1644 2.47983 16.1644 2.73124V4.09686C16.1644 4.34827 15.9606 4.55207 15.7092 4.55207L14.3436 4.55207C14.0922 4.55207 13.8884 4.34827 13.8884 4.09686C13.8884 3.84546 14.0922 3.64165 14.3436 3.64165L14.7699 3.64165C14.724 3.6163 14.6771 3.59289 14.6291 3.57152C14.4057 3.47206 14.1647 3.4186 13.9202 3.41433C13.6758 3.41005 13.433 3.45504 13.2063 3.54662C12.9796 3.6382 12.7737 3.77449 12.6008 3.94736C12.4231 4.12513 12.1348 4.12513 11.9571 3.94736C11.7793 3.76959 11.7793 3.48137 11.9571 3.3036C12.2164 3.04429 12.5253 2.83986 12.8653 2.70249C13.2053 2.56512 13.5695 2.49763 13.9361 2.50405C14.3028 2.51047 14.6644 2.59065 14.9994 2.73983C15.0867 2.77868 15.1716 2.822 15.254 2.86957V2.73124C15.254 2.47983 15.4578 2.27603 15.7092 2.27603ZM14.9115 7.31207C14.5715 7.44944 14.2073 7.51693 13.8407 7.51051C13.474 7.50409 13.1124 7.42391 12.7774 7.27473C12.6901 7.23588 12.6052 7.19256 12.5228 7.14499V7.28332C12.5228 7.53473 12.319 7.73853 12.0676 7.73853C11.8162 7.73853 11.6124 7.53473 11.6124 7.28332V5.9177C11.6124 5.66629 11.8162 5.46249 12.0676 5.46249H13.4332C13.6846 5.46249 13.8884 5.66629 13.8884 5.9177C13.8884 6.1691 13.6846 6.37291 13.4332 6.37291H13.0069C13.0528 6.39826 13.0997 6.42167 13.1477 6.44304C13.3711 6.5425 13.6121 6.59595 13.8566 6.60023C14.101 6.60451 14.3438 6.55952 14.5705 6.46794C14.7972 6.37636 15.0031 6.24007 15.176 6.0672C15.3537 5.88943 15.642 5.88943 15.8197 6.0672C15.9975 6.24497 15.9975 6.53319 15.8197 6.71096C15.5604 6.97027 15.2515 7.1747 14.9115 7.31207ZM13.8884 10.0146C15.0989 10.0146 16.2091 9.58503 17.0749 8.87003V12.2906C17.0749 13.0448 16.4634 13.6562 15.7092 13.6562H12.5228V15.4771H13.8884C14.1398 15.4771 14.3436 15.6809 14.3436 15.9323C14.3436 16.1837 14.1398 16.3875 13.8884 16.3875H5.69464C5.44324 16.3875 5.23943 16.1837 5.23943 15.9323C5.23943 15.6809 5.44324 15.4771 5.69464 15.4771H7.06027V13.6562H3.87381C3.11959 13.6562 2.50818 13.0448 2.50818 12.2906L2.50818 3.18644C2.50818 2.43223 3.11959 1.82082 3.87381 1.82082L10.0256 1.82082C9.31065 2.68657 8.8811 3.79676 8.8811 5.00728C8.8811 7.77273 11.1229 10.0146 13.8884 10.0146ZM11.6124 13.6562H7.97069V15.4771H11.6124V13.6562Z" fill="#FFA033"/>
</g>
<defs>
<clipPath id="clip0_826_10440">
<rect width="18.2084" height="18.2084" fill="white" transform="translate(0.791504 0.104126)"/>
</clipPath>
</defs>
</svg>
