<svg width="23" height="22" viewBox="0 0 23 22" fill="none" xmlns="http://www.w3.org/2000/svg">
<path d="M6.11506 1.89587C4.98374 1.89587 4.06662 2.81299 4.06662 3.94431V9.86203C4.06662 10.9934 4.98374 11.9105 6.11506 11.9105H9.07392V18.7386H7.48069C7.10358 18.7386 6.79787 19.0443 6.79787 19.4214C6.79787 19.7985 7.10358 20.1042 7.48069 20.1042H15.2192C15.5963 20.1042 15.902 19.7985 15.902 19.4214C15.902 19.0443 15.5963 18.7386 15.2192 18.7386H13.626L13.626 11.9105H16.5849C17.7162 11.9105 18.6333 10.9934 18.6333 9.86203V3.94431C18.6333 2.81299 17.7162 1.89587 16.5849 1.89587L6.11506 1.89587ZM10.4395 18.7386V11.9105H12.2604L12.2604 18.7386H10.4395Z" fill="#10C7F9"/>
</svg>
