<svg width="19" height="19" viewBox="0 0 19 19" fill="none" xmlns="http://www.w3.org/2000/svg">
<path d="M4.44791 5.35833C4.44791 3.34709 6.07834 1.71666 8.08958 1.71666C10.1008 1.71666 11.7313 3.34709 11.7313 5.35833C11.7313 7.36957 10.1008 9 8.08958 9C6.07834 9 4.44791 7.36957 4.44791 5.35833ZM8.08958 2.62708C6.58115 2.62708 5.35833 3.8499 5.35833 5.35833C5.35833 6.86676 6.58115 8.08958 8.08958 8.08958C9.59801 8.08958 10.8208 6.86676 10.8208 5.35833C10.8208 3.8499 9.59801 2.62708 8.08958 2.62708ZM1.71666 11.7313C1.71666 10.7178 2.5389 9.91042 3.54544 9.91042L9.23412 9.91042C9.00322 10.19 8.80208 10.4951 8.63557 10.8208L3.54544 10.8208C3.03482 10.8208 2.62708 11.2275 2.62708 11.7313C2.62708 12.9228 3.1936 13.8104 4.14986 14.4201C5.12452 15.0415 6.50991 15.3729 8.08958 15.3729C8.27204 15.3729 8.45191 15.3685 8.62885 15.3597C8.78642 15.6702 8.9754 15.9621 9.19162 16.2312C8.83203 16.2661 8.46363 16.2833 8.08958 16.2833C6.40099 16.2833 4.82753 15.9319 3.6604 15.1877C2.47486 14.4318 1.71666 13.271 1.71666 11.7313ZM17.1938 13.0969C17.1938 15.3595 15.3595 17.1938 13.0969 17.1938C10.8342 17.1938 9 15.3595 9 13.0969C9 10.8342 10.8342 9 13.0969 9C15.3595 9 17.1938 10.8342 17.1938 13.0969ZM13.0969 10.8208C12.8455 10.8208 12.6417 11.0246 12.6417 11.276V13.0969C12.6417 13.3483 12.8455 13.5521 13.0969 13.5521H14.4625C14.7139 13.5521 14.9177 13.3483 14.9177 13.0969C14.9177 12.8455 14.7139 12.6417 14.4625 12.6417H13.5521V11.276C13.5521 11.0246 13.3483 10.8208 13.0969 10.8208Z" fill="#1DA479"/>
</svg>
