<svg width="23" height="22" viewBox="0 0 23 22" fill="none" xmlns="http://www.w3.org/2000/svg">
<g clip-path="url(#clip0_826_10416)">
<path d="M6.51507 2.9104C4.88094 2.9104 3.55621 4.23513 3.55621 5.86926L3.55621 16.3391C3.55621 17.9732 4.88094 19.2979 6.51507 19.2979H12.8168C12.7116 18.9641 12.6604 18.6188 12.6604 18.2737V18.1799C12.6604 16.7853 13.7911 15.6562 15.1847 15.6562H15.4376C14.8474 15.0779 14.4812 14.2718 14.4812 13.3802C14.4812 11.6204 15.9079 10.1937 17.6677 10.1937C18.5593 10.1937 19.3654 10.5599 19.9437 11.1501V5.86926C19.9437 4.23513 18.619 2.9104 16.9849 2.9104L6.51507 2.9104ZM16.557 8.6284L10.4083 14.77C10.1416 15.0364 9.70943 15.0363 9.44289 14.7697L6.9431 12.2698C6.67645 12.0031 6.67646 11.5708 6.94313 11.3041C7.20979 11.0375 7.64212 11.0375 7.90877 11.3042L9.92602 13.3215L15.5919 7.6622C15.8587 7.3957 16.2911 7.39595 16.5576 7.66276C16.8241 7.92957 16.8238 8.3619 16.557 8.6284ZM19.9437 13.3802C19.9437 14.6372 18.9247 15.6562 17.6677 15.6562C16.4107 15.6562 15.3916 14.6372 15.3916 13.3802C15.3916 12.1232 16.4107 11.1042 17.6677 11.1042C18.9247 11.1042 19.9437 12.1232 19.9437 13.3802ZM21.7646 18.2737C21.7646 19.6908 20.594 21.1187 17.6677 21.1188C14.7413 21.1188 13.5708 19.6961 13.5708 18.2737V18.1799C13.5708 17.2886 14.2934 16.5667 15.1847 16.5667H20.1506C21.042 16.5667 21.7646 17.2886 21.7646 18.1799V18.2737Z" fill="#1DA479"/>
</g>
<defs>
<clipPath id="clip0_826_10416">
<rect width="21.85" height="21.85" fill="white" transform="translate(0.75 0.104126)"/>
</clipPath>
</defs>
</svg>
