<svg width="21" height="22" viewBox="0 0 21 22" fill="none" xmlns="http://www.w3.org/2000/svg">
<path d="M7.53033 3.96967C7.82322 4.26256 7.82322 4.73744 7.53033 5.03033L4.31066 8.25H10.75C14.8921 8.25 18.25 11.6079 18.25 15.75C18.25 16.1642 17.9142 16.5 17.5 16.5C17.0858 16.5 16.75 16.1642 16.75 15.75C16.75 12.4363 14.0637 9.75 10.75 9.75H4.31066L7.53033 12.9697C7.82322 13.2626 7.82322 13.7374 7.53033 14.0303C7.23744 14.3232 6.76256 14.3232 6.46967 14.0303L1.96967 9.53033C1.67678 9.23744 1.67678 8.76256 1.96967 8.46967L6.46967 3.96967C6.76256 3.67678 7.23744 3.67678 7.53033 3.96967Z" fill="#8592B5"/>
</svg>
