<svg width="14" height="14" viewBox="0 0 14 14" fill="none" xmlns="http://www.w3.org/2000/svg">
<path d="M11.3125 0.25C12.6587 0.25 13.75 1.34131 13.75 2.6875V11.3125C13.75 12.6587 12.6587 13.75 11.3125 13.75H2.6875C1.34131 13.75 0.25 12.6587 0.25 11.3125L0.25 2.6875C0.25 1.34131 1.34131 0.25 2.6875 0.25L11.3125 0.25ZM12.625 4.375L1.375 4.375L1.375 11.3125C1.375 12.0374 1.96263 12.625 2.6875 12.625H11.3125C12.0374 12.625 12.625 12.0374 12.625 11.3125V4.375ZM3.8125 8.875C4.33027 8.875 4.75 9.29473 4.75 9.8125C4.75 10.3303 4.33027 10.75 3.8125 10.75C3.29473 10.75 2.875 10.3303 2.875 9.8125C2.875 9.29473 3.29473 8.875 3.8125 8.875ZM7 8.875C7.51777 8.875 7.9375 9.29473 7.9375 9.8125C7.9375 10.3303 7.51777 10.75 7 10.75C6.48223 10.75 6.0625 10.3303 6.0625 9.8125C6.0625 9.29473 6.48223 8.875 7 8.875ZM3.8125 5.875C4.33027 5.875 4.75 6.29473 4.75 6.8125C4.75 7.33027 4.33027 7.75 3.8125 7.75C3.29473 7.75 2.875 7.33027 2.875 6.8125C2.875 6.29473 3.29473 5.875 3.8125 5.875ZM7 5.875C7.51777 5.875 7.9375 6.29473 7.9375 6.8125C7.9375 7.33027 7.51777 7.75 7 7.75C6.48223 7.75 6.0625 7.33027 6.0625 6.8125C6.0625 6.29473 6.48223 5.875 7 5.875ZM10.1875 5.875C10.7053 5.875 11.125 6.29473 11.125 6.8125C11.125 7.33027 10.7053 7.75 10.1875 7.75C9.66973 7.75 9.25 7.33027 9.25 6.8125C9.25 6.29473 9.66973 5.875 10.1875 5.875ZM11.3125 1.375L2.6875 1.375C1.96263 1.375 1.375 1.96263 1.375 2.6875V3.25L12.625 3.25V2.6875C12.625 1.96263 12.0374 1.375 11.3125 1.375Z" fill="#8592B5"/>
</svg>
