<svg width="12" height="15" viewBox="0 0 12 15" fill="none" xmlns="http://www.w3.org/2000/svg">
<path d="M0 2.59961C0 1.66763 0.755519 0.912109 1.6875 0.912109L10.3125 0.912109C11.2445 0.912109 12 1.66763 12 2.59961V7.47461C12 8.40659 11.2445 9.16211 10.3125 9.16211H7.875V13.7871H9.1875C9.49816 13.7871 9.75 14.0389 9.75 14.3496C9.75 14.6603 9.49816 14.9121 9.1875 14.9121H2.8125C2.50184 14.9121 2.25 14.6603 2.25 14.3496C2.25 14.0389 2.50184 13.7871 2.8125 13.7871H4.125V9.16211H1.6875C0.755519 9.16211 0 8.40659 0 7.47461L0 2.59961ZM5.25 9.16211V13.7871H6.75V9.16211H5.25ZM1.6875 2.03711C1.37684 2.03711 1.125 2.28895 1.125 2.59961L1.125 7.47461C1.125 7.78527 1.37684 8.03711 1.6875 8.03711H10.3125C10.6232 8.03711 10.875 7.78527 10.875 7.47461V2.59961C10.875 2.28895 10.6232 2.03711 10.3125 2.03711L1.6875 2.03711Z" fill="#445174"/>
</svg>
