<svg width="10" height="11" viewBox="0 0 10 11" fill="none" xmlns="http://www.w3.org/2000/svg">
<path d="M0.75 5.47473C0.75 3.12752 2.65279 1.22473 5 1.22473C7.34721 1.22473 9.25 3.12752 9.25 5.47473C9.25 7.82194 7.34721 9.72473 5 9.72473C2.65279 9.72473 0.75 7.82194 0.75 5.47473ZM5 0.474731C2.23858 0.474731 0 2.71331 0 5.47473C0 8.23615 2.23858 10.4747 5 10.4747C7.76142 10.4747 10 8.23615 10 5.47473C10 2.71331 7.76142 0.474731 5 0.474731ZM4.99657 2.79887C4.97173 2.6159 4.81475 2.47473 4.625 2.47473C4.418 2.47473 4.25 2.64273 4.25 2.84973V5.84973L4.25342 5.90059C4.27827 6.08356 4.43525 6.22473 4.625 6.22473H6.625L6.67586 6.22131C6.85883 6.19646 7 6.03948 7 5.84973C7 5.64273 6.832 5.47473 6.625 5.47473H5V2.84973L4.99657 2.79887Z" fill="#8592B5"/>
</svg>
