<svg width="22" height="23" viewBox="0 0 22 23" fill="none" xmlns="http://www.w3.org/2000/svg">
<g clip-path="url(#clip0_423_6889)">
<path d="M16.0848 11.8302C18.849 11.8302 21.0898 14.071 21.0898 16.8352C21.0898 19.5994 18.849 21.8402 16.0848 21.8402C13.3206 21.8402 11.0798 19.5994 11.0798 16.8352C11.0798 14.071 13.3206 11.8302 16.0848 11.8302ZM12.6723 2.73024C13.8031 2.73024 14.7198 3.64694 14.7198 4.77774L14.7199 11.0785C14.2396 11.1919 13.7819 11.3639 13.3547 11.5866L13.3548 4.77774C13.3548 4.4008 13.0492 4.09524 12.6723 4.09524L5.8473 4.09524C5.47037 4.09524 5.1648 4.4008 5.1648 4.77774L5.1648 18.8827C5.1648 19.2597 5.47037 19.5652 5.8473 19.5652L10.8366 19.5662C11.098 20.0676 11.4292 20.5268 11.8172 20.931L5.8473 20.9302C4.7165 20.9302 3.7998 20.0135 3.7998 18.8827L3.7998 4.77774C3.7998 3.64694 4.7165 2.73024 5.8473 2.73024L12.6723 2.73024ZM13.8945 14.5295L13.8315 14.5822L13.7788 14.6452C13.6713 14.8004 13.6713 15.0075 13.7788 15.1626L13.8315 15.2257L15.4417 16.8359L13.8338 18.4436L13.7812 18.5067C13.6737 18.6618 13.6737 18.8689 13.7812 19.0241L13.8338 19.0871L13.8968 19.1398C14.052 19.2472 14.2591 19.2472 14.4143 19.1398L14.4773 19.0871L16.0851 17.4792L17.6949 19.0892L17.758 19.1418C17.9131 19.2493 18.1202 19.2493 18.2754 19.1418L18.3384 19.0892L18.3911 19.0261C18.4985 18.871 18.4985 18.6639 18.3911 18.5087L18.3384 18.4457L16.7285 16.8359L18.3409 15.2257L18.3936 15.1627C18.5011 15.0075 18.5011 14.8004 18.3936 14.6453L18.3409 14.5822L18.2779 14.5296C18.1227 14.4221 17.9156 14.4221 17.7605 14.5296L17.6975 14.5822L16.0851 16.1925L14.4749 14.5822L14.4119 14.5295C14.2789 14.4374 14.1077 14.4242 13.9638 14.4901L13.8945 14.5295ZM8.12127 16.8387L10.1698 16.8343C10.1698 17.305 10.2246 17.7619 10.328 18.2001L8.12333 18.2037C7.7464 18.2042 7.44037 17.8991 7.4398 17.5222C7.43923 17.1452 7.74434 16.8392 8.12127 16.8387Z" fill="#FE5440"/>
</g>
<defs>
<clipPath id="clip0_423_6889">
<rect width="21.84" height="21.84" fill="white" transform="translate(0.079834 0.830261)"/>
</clipPath>
</defs>
</svg>
