<svg width="12" height="13" viewBox="0 0 12 13" fill="none" xmlns="http://www.w3.org/2000/svg">
<path d="M0 3.41211C0 2.0314 1.11929 0.912109 2.5 0.912109L9.5 0.912109C10.8807 0.912109 12 2.0314 12 3.41211V10.4121C12 11.7928 10.8807 12.9121 9.5 12.9121H2.5C1.11929 12.9121 0 11.7928 0 10.4121L0 3.41211ZM2.5 1.91211C1.67157 1.91211 1 2.58368 1 3.41211L1 5.91211L7 5.91211V1.91211L2.5 1.91211ZM1 6.91211L1 10.4121C1 11.2405 1.67157 11.9121 2.5 11.9121H7L7 6.91211H1ZM8 7.91211L11 7.91211V5.91211L8 5.91211V7.91211ZM11 8.91211H8L8 11.9121H9.5C10.3284 11.9121 11 11.2405 11 10.4121V8.91211ZM11 3.41211C11 2.58368 10.3284 1.91211 9.5 1.91211H8V4.91211L11 4.91211V3.41211Z" fill="#445174"/>
</svg>
