<svg width="21" height="22" viewBox="0 0 21 22" fill="none" xmlns="http://www.w3.org/2000/svg">
<path d="M12.3624 14.175C12.7973 14.175 13.1499 14.5276 13.1499 14.9625C13.1499 15.3974 12.7973 15.75 12.3624 15.75H7.6374C7.20248 15.75 6.8499 15.3974 6.8499 14.9625C6.8499 14.5276 7.20248 14.175 7.6374 14.175H12.3624ZM14.4624 9.7125C14.8973 9.7125 15.2499 10.0651 15.2499 10.5C15.2499 10.9349 14.8973 11.2875 14.4624 11.2875H5.5374C5.10248 11.2875 4.7499 10.9349 4.7499 10.5C4.7499 10.0651 5.10248 9.7125 5.5374 9.7125H14.4624ZM16.5624 5.25C16.9973 5.25 17.3499 5.60258 17.3499 6.0375C17.3499 6.47242 16.9973 6.825 16.5624 6.825L3.4374 6.825C3.00248 6.825 2.6499 6.47242 2.6499 6.0375C2.6499 5.60258 3.00248 5.25 3.4374 5.25L16.5624 5.25Z" fill="#8592B5"/>
</svg>
