<svg width="125" height="22" viewBox="0 0 125 22" fill="none" xmlns="http://www.w3.org/2000/svg">
<path d="M13.8639 0.238886C12.8386 -0.0106421 11.714 0.314002 10.9281 1.08027L8.80298 3.15822C8.61557 3.34148 8.36714 3.44312 8.10291 3.44312C7.83639 3.44312 7.58807 3.34159 7.40054 3.15822L5.22349 1.03169C4.22759 0.0556301 2.68284 -0.125387 1.46793 0.590062C0.56235 1.12449 0 2.13145 0 3.21565V12.9761C0 14.0714 0.912331 14.9635 2.03245 14.9635C3.15258 14.9635 4.06491 14.0714 4.06491 12.9761V7.13757L2.70986 5.90975V12.9761C2.70986 13.3405 2.40499 13.6386 2.03234 13.6386C1.65969 13.6386 1.35481 13.3405 1.35481 12.9761V3.21565C1.35481 3.10751 1.36386 2.99926 1.38195 2.89548L4.53235 5.97602C6.50161 7.89937 9.70387 7.89937 11.671 5.97602L12.1384 5.51894V6.81965H13.4934V5.15243C13.4934 4.67543 13.2021 4.25149 12.7527 4.06823C12.6037 4.00856 12.4478 3.97767 12.292 3.97767C11.9804 3.97767 11.6755 4.09689 11.4452 4.32213L10.7112 5.03981C9.27272 6.44642 6.93081 6.44642 5.49219 5.03981L2.12725 1.74949C2.14076 1.74065 2.15438 1.73404 2.16789 1.7252C2.84758 1.32331 3.71035 1.42484 4.26583 1.96812L6.44287 4.09465C7.3575 4.99123 8.84569 4.99123 9.76031 4.09465L11.8854 2.0167C12.337 1.57508 12.9716 1.38734 13.5407 1.52425C14.3109 1.70975 14.8483 2.37885 14.8483 3.14725V7.67861V8.83569V9.00349V10.3218C14.3402 10.324 13.6355 10.3263 13.1251 10.3263C10.7969 10.3263 8.88851 12.0575 8.78467 14.2701C8.72823 15.4117 9.14369 16.4961 9.9499 17.3241C10.7584 18.1522 11.8469 18.6071 13.0121 18.6071H13.8026C14.1775 18.6071 14.4801 18.9053 14.4801 19.2696C14.4801 19.634 14.1775 19.9321 13.8026 19.9321H13.1522C10.1125 19.9321 7.54479 17.5804 7.42733 14.6876C7.3686 13.2213 7.89936 11.8213 8.9224 10.7481C9.94543 9.67047 11.332 9.05208 12.8068 9.00361H14.0579V7.67872H12.8068V7.6898C12.3665 7.70525 12.1383 7.72955 12.1383 7.72955C10.528 7.92612 9.05337 8.66362 7.93107 9.84499C6.6596 11.1787 6.00016 12.9189 6.07469 14.7406C6.22146 18.3952 9.33122 21.2571 13.1523 21.2571H13.8027C14.9251 21.2571 15.8351 20.365 15.8351 19.2697C15.8351 18.1745 14.925 17.2824 13.8027 17.2824H13.0123C12.2196 17.2824 11.4811 16.9732 10.9301 16.408C10.3814 15.8471 10.1014 15.1095 10.1374 14.3322C10.2075 12.8549 11.5489 11.6515 13.1274 11.6515L15.1554 11.6449C15.5732 11.6426 16.2033 11.6405 16.2033 10.978V8.83602V7.67895V3.14759C16.2035 1.76695 15.2415 0.570023 13.8639 0.238886Z" fill="#1DA479"/>
<path d="M28.2827 8.73454H28.2284L27.306 10.5795L24.8461 15.047L22.4404 10.5975L21.4818 8.60793H21.4275V17.0186H18.841V4.39356H21.7531L24.8461 10.3081H24.8822L27.939 4.39356H30.8692V17.0186H28.2827V8.73454Z" fill="#1E2842"/>
<path d="M33.6607 17.0186V4.39356H42.2522V6.83536H36.41V9.42186H41.4202V11.8456H36.41V14.5768H42.2522V17.0186H33.6607Z" fill="#1E2842"/>
<path d="M44.6474 4.39356H49.4044C50.2364 4.39356 50.9961 4.5262 51.6834 4.79149C52.3707 5.05677 52.9556 5.45469 53.4379 5.98526C53.9202 6.50376 54.294 7.16094 54.5593 7.95678C54.8246 8.74057 54.9572 9.657 54.9572 10.7061C54.9572 11.7551 54.8246 12.6776 54.5593 13.4734C54.294 14.2572 53.9202 14.9144 53.4379 15.445C52.9556 15.9635 52.3707 16.3554 51.6834 16.6207C50.9961 16.8859 50.2364 17.0186 49.4044 17.0186H44.6474V4.39356ZM49.4044 14.5768C50.2244 14.5768 50.8695 14.3477 51.3397 13.8895C51.81 13.4312 52.0452 12.6957 52.0452 11.6828V9.72935C52.0452 8.71645 51.81 7.9809 51.3397 7.52268C50.8695 7.06447 50.2244 6.83536 49.4044 6.83536H47.3967V14.5768H49.4044Z" fill="#1E2842"/>
<path d="M56.7708 17.0186V14.83H58.3986V6.58214H56.7708V4.39356H62.7758V6.58214H61.1479V14.83H62.7758V17.0186H56.7708Z" fill="#1E2842"/>
<path d="M70.167 17.2356C69.3109 17.2356 68.5392 17.103 67.8519 16.8377C67.1645 16.5604 66.5797 16.1564 66.0974 15.6258C65.615 15.0832 65.2412 14.414 64.976 13.6181C64.7107 12.8102 64.578 11.8697 64.578 10.7965C64.578 9.73538 64.7107 8.79483 64.976 7.97487C65.2412 7.14285 65.615 6.4495 66.0974 5.89482C66.5797 5.32808 67.1645 4.90001 67.8519 4.61061C68.5392 4.32121 69.3109 4.17651 70.167 4.17651C71.3367 4.17651 72.3014 4.41768 73.061 4.90001C73.8207 5.37028 74.4296 6.1179 74.8879 7.14285L72.5184 8.37279C72.3496 7.84223 72.0843 7.42019 71.7226 7.10667C71.3729 6.7811 70.8544 6.61831 70.167 6.61831C69.3591 6.61831 68.708 6.8836 68.2136 7.41416C67.7313 7.93267 67.4901 8.69234 67.4901 9.69317V11.719C67.4901 12.7198 67.7313 13.4855 68.2136 14.0161C68.708 14.5346 69.3591 14.7938 70.167 14.7938C70.8423 14.7938 71.3789 14.6129 71.7768 14.2512C72.1868 13.8774 72.4883 13.4312 72.6812 12.9127L74.924 14.215C74.4538 15.1797 73.8328 15.9273 73.061 16.4579C72.3014 16.9764 71.3367 17.2356 70.167 17.2356Z" fill="#1E2842"/>
<path d="M76.8479 17.0186V4.39356H79.5972V14.5768H84.4085V17.0186H76.8479Z" fill="#1E2842"/>
<path d="M85.9508 17.0186V14.83H87.5787V6.58214H85.9508V4.39356H91.9559V6.58214H90.328V14.83H91.9559V17.0186H85.9508Z" fill="#1E2842"/>
<path d="M98.0991 11.0497L96.8872 8.51749H96.833V17.0186H94.2465V4.39356H97.249L100.704 10.3624L101.916 12.8946H101.97V4.39356H104.556V17.0186H101.554L98.0991 11.0497Z" fill="#1E2842"/>
<path d="M106.847 17.0186V14.83H108.475V6.58214H106.847V4.39356H112.852V6.58214H111.224V14.83H112.852V17.0186H106.847Z" fill="#1E2842"/>
<path d="M120.243 17.2356C119.387 17.2356 118.615 17.103 117.928 16.8377C117.241 16.5604 116.656 16.1564 116.173 15.6258C115.691 15.0832 115.317 14.414 115.052 13.6181C114.787 12.8102 114.654 11.8697 114.654 10.7965C114.654 9.73538 114.787 8.79483 115.052 7.97487C115.317 7.14285 115.691 6.4495 116.173 5.89482C116.656 5.32808 117.241 4.90001 117.928 4.61061C118.615 4.32121 119.387 4.17651 120.243 4.17651C121.413 4.17651 122.377 4.41768 123.137 4.90001C123.897 5.37028 124.506 6.1179 124.964 7.14285L122.594 8.37279C122.426 7.84223 122.16 7.42019 121.799 7.10667C121.449 6.7811 120.93 6.61831 120.243 6.61831C119.435 6.61831 118.784 6.8836 118.29 7.41416C117.807 7.93267 117.566 8.69234 117.566 9.69317V11.719C117.566 12.7198 117.807 13.4855 118.29 14.0161C118.784 14.5346 119.435 14.7938 120.243 14.7938C120.918 14.7938 121.455 14.6129 121.853 14.2512C122.263 13.8774 122.564 13.4312 122.757 12.9127L125 14.215C124.53 15.1797 123.909 15.9273 123.137 16.4579C122.377 16.9764 121.413 17.2356 120.243 17.2356Z" fill="#1E2842"/>
</svg>
