<svg width="12" height="14" viewBox="0 0 12 14" fill="none" xmlns="http://www.w3.org/2000/svg">
<path d="M0 2.03711C0 1.13965 0.732625 0.412109 1.63636 0.412109C2.5401 0.412109 3.27273 1.13965 3.27273 2.03711L3.27273 11.7871C3.27273 12.6846 2.5401 13.4121 1.63636 13.4121C0.732625 13.4121 0 12.6846 0 11.7871L0 2.03711ZM1.63636 1.49544C1.33512 1.49544 1.09091 1.73796 1.09091 2.03711L1.09091 11.7871C1.09091 12.0863 1.33512 12.3288 1.63636 12.3288C1.93761 12.3288 2.18182 12.0863 2.18182 11.7871L2.18182 2.03711C2.18182 1.73796 1.93761 1.49544 1.63636 1.49544ZM4.36364 5.28711C4.36364 4.38965 5.09626 3.66211 6 3.66211C6.90374 3.66211 7.63636 4.38965 7.63636 5.28711L7.63636 11.7871C7.63636 12.6846 6.90374 13.4121 6 13.4121C5.09626 13.4121 4.36364 12.6846 4.36364 11.7871L4.36364 5.28711ZM6 4.74544C5.69875 4.74544 5.45455 4.98796 5.45455 5.28711L5.45455 11.7871C5.45455 12.0863 5.69875 12.3288 6 12.3288C6.30125 12.3288 6.54545 12.0863 6.54545 11.7871L6.54545 5.28711C6.54545 4.98796 6.30125 4.74544 6 4.74544ZM10.3636 6.91211C9.4599 6.91211 8.72727 7.63965 8.72727 8.53711V11.7871C8.72727 12.6846 9.4599 13.4121 10.3636 13.4121C11.2674 13.4121 12 12.6846 12 11.7871V8.53711C12 7.63965 11.2674 6.91211 10.3636 6.91211ZM9.81818 8.53711C9.81818 8.23796 10.0624 7.99544 10.3636 7.99544C10.6649 7.99544 10.9091 8.23796 10.9091 8.53711V11.7871C10.9091 12.0863 10.6649 12.3288 10.3636 12.3288C10.0624 12.3288 9.81818 12.0863 9.81818 11.7871V8.53711Z" fill="#445174"/>
</svg>
